<svg xmlns="http://www.w3.org/2000/svg" width="48" height="48" viewBox="0 0 48 48" fill="none">
<path d="M8.976 2.48C7.984 2.66133 7.104 3.34933 6.656 4.29866C6.32534 5.008 6.34667 3.64266 6.35734 23.3707C6.37334 38.288 6.384 41.3973 6.448 41.5733C6.82667 42.6987 7.59467 43.4773 8.656 43.8133L9.072 43.9467H17.4453H25.8133L25.8027 42.8373L25.7867 41.7333L18.08 41.7067L10.3733 41.68L10.08 41.5413C9.62667 41.328 9.25867 40.9653 9.02934 40.4907L8.82667 40.0853V23.2053V6.32L8.944 6.02666C9.17867 5.456 9.73334 4.93333 10.288 4.75733C10.5707 4.672 11.4187 4.66666 24.0267 4.66666H37.4667L37.776 4.784C38.4107 5.024 38.896 5.536 39.0987 6.18133C39.2 6.512 39.2 6.82133 39.2 23.1627C39.2 33.9573 39.1787 39.8933 39.1467 40.0427C39.0027 40.6613 38.5547 41.2213 37.984 41.504C37.6427 41.6747 37.6 41.68 36.896 41.696L36.16 41.7173V42.832V43.9467H37.5093C39.0347 43.9467 39.3067 43.904 39.9147 43.584C40.4533 43.3067 41.0347 42.7147 41.296 42.1813C41.6853 41.392 41.6587 42.9067 41.6427 22.9867L41.6267 5.04L41.5093 4.69333C41.0987 3.49333 40.112 2.656 38.8747 2.45866C38.32 2.368 9.472 2.38933 8.976 2.48Z" fill="#ffffff"/>
<path d="M11.7333 9.22666V10.56H24.0267H36.32V9.22666V7.89333H24.0267H11.7333V9.22666Z" fill="#ffffff"/>
<path d="M11.76 13.5093C11.744 13.5467 11.7387 14.1493 11.744 14.8533L11.76 16.1333H24.0267H36.2933V14.8V13.4667L24.0373 13.4507C14.16 13.44 11.776 13.4507 11.76 13.5093Z" fill="#ffffff"/>
<path d="M11.7333 20.3733V21.7067H24.0267H36.32V20.3733V19.04H24.0267H11.7333V20.3733Z" fill="#ffffff"/>
<path d="M30.56 25.456C30.192 26.1973 29.888 26.8107 29.8827 26.8213C29.872 26.8373 29.7494 26.7573 28.1654 25.6693L27.344 25.104L27.376 25.552C27.4667 26.7307 27.536 28.1067 27.5147 28.128C27.4987 28.144 26.8907 28.1067 26.16 28.048C25.424 27.9893 24.7627 27.952 24.6774 27.9573C24.5334 27.9733 24.5494 27.9947 25.3654 29.216C25.8187 29.904 26.1867 30.4693 26.176 30.4747C26.1654 30.4853 25.552 30.7733 24.816 31.1253C24.0747 31.472 23.4667 31.7707 23.472 31.7867C23.472 31.8027 24.0747 32.1067 24.8107 32.4693C25.744 32.928 26.1334 33.1467 26.1174 33.1947C26.1014 33.2373 25.8507 33.6107 25.5627 34.032C25.2694 34.4533 24.9067 34.9867 24.7467 35.216C24.592 35.44 24.4747 35.6373 24.4854 35.6427C24.496 35.6533 25.1627 35.616 25.968 35.5627C26.7734 35.5093 27.44 35.4773 27.456 35.4933C27.4827 35.52 27.3387 37.6053 27.2694 38.2347L27.2374 38.5173L28.448 37.712C29.1147 37.264 29.696 36.8853 29.7387 36.8693C29.792 36.848 29.9414 37.12 30.2934 37.8453C30.5547 38.4 30.8534 39.0187 30.9494 39.2213L31.1254 39.584L31.7867 38.2187C32.1547 37.4667 32.464 36.8533 32.48 36.8533C32.496 36.8533 33.0614 37.2373 33.7334 37.7013C34.4107 38.1653 34.9707 38.5387 34.9814 38.528C34.9867 38.5227 34.9707 38.0853 34.9334 37.5627C34.896 37.04 34.8534 36.368 34.832 36.064L34.8 35.52L34.9334 35.5253C35.008 35.5253 35.6854 35.5787 36.4427 35.6427C37.4507 35.728 37.808 35.744 37.792 35.696C37.776 35.664 37.4027 35.0933 36.9654 34.432C36.5227 33.7707 36.16 33.2213 36.16 33.216C36.16 33.2053 36.7734 32.912 37.52 32.56C38.2667 32.208 38.8747 31.9093 38.88 31.8933C38.88 31.8773 38.2667 31.568 37.52 31.2L36.1654 30.5333L37.0134 29.3067C37.4827 28.6293 37.8614 28.064 37.8667 28.048C37.8667 28.032 37.7547 28.0267 37.616 28.0373C37.2587 28.064 34.9387 28.2133 34.88 28.2133C34.8534 28.2133 34.8427 28.1333 34.8587 28.0373C34.896 27.792 35.088 25.2053 35.072 25.1893C35.0667 25.184 34.5014 25.552 33.8187 26.0053C33.136 26.464 32.5547 26.816 32.528 26.7893C32.5014 26.7627 32.2027 26.1547 31.8667 25.44C31.5254 24.72 31.2374 24.128 31.232 24.1227C31.2267 24.1173 30.9227 24.7147 30.56 25.456ZM35.28 28.8427C35.7227 29.152 35.8987 29.8347 35.6587 30.288C35.5787 30.4373 32.5494 34.0693 31.2374 35.584C30.816 36.0693 30.272 36.2293 29.7867 36.0053C29.6694 35.952 29.4507 35.7813 29.3067 35.6213C28.6347 34.896 27.376 33.4133 27.2694 33.216C26.976 32.6827 27.232 31.9467 27.8134 31.6373C28.0374 31.52 28.56 31.5253 28.816 31.648C28.944 31.712 29.2427 32 29.6107 32.4213C29.936 32.7893 30.2134 33.0987 30.2347 33.104C30.2507 33.1093 30.7947 32.4853 31.44 31.7227C34.1067 28.5547 33.8934 28.7787 34.336 28.6667C34.6507 28.5867 35.0027 28.6507 35.28 28.8427Z" fill="#ffffff"/>
<path d="M11.7333 25.9733V27.3067H17.5733H23.4133V25.9733V24.64H17.5733H11.7333V25.9733Z" fill="#ffffff"/>
<path d="M28.4693 38.592L27.2533 39.2V42.3733C27.2533 44.1173 27.264 45.5467 27.2747 45.5467C27.2853 45.5467 28.1387 44.8267 29.1787 43.9467C30.2187 43.0667 31.0933 42.352 31.1307 42.3573C31.1627 42.368 32 43.056 32.992 43.8933C33.984 44.7307 34.8373 45.4453 34.8907 45.4827C34.9813 45.552 34.9867 45.44 34.9867 42.3787V39.2L33.8133 38.6133C33.168 38.2933 32.624 38.0267 32.5973 38.0267C32.576 38.0267 32.5173 38.0907 32.4747 38.1707C32.4267 38.256 32.1067 38.8213 31.76 39.4293C31.4133 40.0427 31.1147 40.5227 31.088 40.496C31.0667 40.4747 30.752 39.9147 30.4 39.2533C30.0427 38.592 29.7333 38.0373 29.7173 38.016C29.696 38 29.136 38.256 28.4693 38.592Z" fill="#ffffff"/>
</svg>