<svg version="1.1" xmlns="http://www.w3.org/2000/svg" width="512px" height="512px" transform="rotate(0) scale(1, 1)">
<path d="M0 0 C9.04196344 7.49423997 14.52375822 16.17384633 16.16796875 27.796875 C16.84764224 36.36194526 15.31476288 44.4144705 13.54466057 52.74022865 C13.05989935 55.02166372 12.58907348 57.30561123 12.12147522 59.59062195 C11.12812492 64.43272838 10.11803146 69.27125499 9.10546875 74.109375 C7.9275635 79.73850609 6.75672805 85.36892306 5.6036396 91.00319481 C5.14083833 93.24625742 4.66531603 95.48637211 4.18919373 97.72663879 C3.9053684 99.10579757 3.62213854 100.48507907 3.33959961 101.86450195 C2.96320595 103.66006279 2.96320595 103.66006279 2.57920837 105.49189758 C1.92340551 110.76233733 3.09026141 115.02494425 5.0234375 119.89453125 C5.3956543 120.849646 5.76787109 121.80476074 6.15136719 122.78881836 C6.74739746 124.3087439 6.74739746 124.3087439 7.35546875 125.859375 C37.92384807 205.91046985 37.49095987 307.38489456 3.83984375 386.421875 C-5.79931969 407.96602304 -20.56299022 431.56661153 -43.28515625 440.79296875 C-57.1818495 445.60159274 -69.4321791 444.42053808 -82.828125 438.46484375 C-97.37276152 430.83518714 -107.63884799 417.69108764 -115.83203125 403.796875 C-116.18458984 403.2085791 -116.53714844 402.6202832 -116.90039062 402.01416016 C-125.31918373 387.77881816 -130.63087339 372.09174366 -135.51953125 356.359375 C-135.78064697 355.52857422 -136.0417627 354.69777344 -136.31079102 353.84179688 C-138.33911601 347.09715771 -139.89572984 340.26182241 -141.44067383 333.39428711 C-141.78662472 331.86393452 -141.78662472 331.86393452 -142.13956451 330.30266571 C-142.70491101 327.80100173 -143.26903228 325.29906815 -143.83203125 322.796875 C-144.5012624 323.47163691 -145.17049355 324.14639881 -145.86000443 324.84160805 C-162.16971884 341.2847178 -178.49686668 357.71035876 -194.84227371 374.11799049 C-202.74650321 382.0531138 -210.64504199 389.993748 -218.53027344 397.94775391 C-225.40573583 404.88315474 -232.29179906 411.80782444 -239.19061923 418.71999395 C-242.84070647 422.37788032 -246.4853883 426.0407995 -250.11740875 429.71663284 C-253.54181748 433.18201022 -256.98031347 436.63277709 -260.42974854 440.07323837 C-261.68779514 441.33292478 -262.94077679 442.59769511 -264.18801117 443.86808777 C-275.12622047 454.99920559 -285.64094934 462.22908819 -301.83203125 462.796875 C-321.07342282 461.83480542 -332.32949833 448.44348961 -345.15332031 435.65258789 C-346.24831808 434.56387388 -347.34349765 433.4753427 -348.43884277 432.38697815 C-351.9952784 428.85133422 -355.54660682 425.31058342 -359.09765625 421.76953125 C-360.3289258 420.54231668 -361.56022637 419.31513324 -362.79155731 418.08798027 C-368.57234722 412.32617638 -374.35076717 406.56200871 -380.12625718 400.79489237 C-386.76521849 394.16572037 -393.41239788 387.5449325 -400.06659532 380.93105513 C-405.23229802 375.79557161 -410.39024423 370.65237914 -415.54251266 365.50341791 C-418.61059323 362.43767826 -421.68183298 359.37527659 -424.76136017 356.32103157 C-427.65622552 353.44955837 -430.54128573 350.56857532 -433.4193573 347.68027306 C-434.47118254 346.62795529 -435.52637949 345.57899407 -436.58533478 344.53385162 C-447.43638322 333.81637725 -454.42669671 323.56491296 -454.92578125 307.84375 C-453.99893742 291.62398304 -445.05740966 281.71741082 -434.05541992 270.75283813 C-433.06572435 269.75940003 -432.07646021 268.76553197 -431.08758736 267.77127492 C-428.38486791 265.05638432 -425.67599657 262.34770764 -422.96600366 259.64007998 C-420.0379165 256.71240249 -417.11557145 253.77900238 -414.19242859 250.84638977 C-408.46987557 245.10725726 -402.74180745 239.37366043 -397.01151747 233.64225389 C-392.35026714 228.98005149 -387.6906033 224.31626937 -383.03204346 219.65137863 C-369.80664507 206.40837488 -356.5770695 193.16956451 -343.34211493 179.93611105 C-342.62931954 179.22339557 -341.91652415 178.5106801 -341.18212891 177.77636719 C-340.4684561 177.06277614 -339.7547833 176.3491851 -339.01948404 175.61397009 C-327.4622331 164.05753147 -315.91498405 152.49115622 -304.37225401 140.92021556 C-292.50315056 129.02233446 -280.62655412 117.13197811 -268.74219036 105.24933946 C-262.07708168 98.58489308 -255.41504912 91.91743895 -248.76107788 85.24187088 C-243.09402859 79.55654532 -237.42000598 73.87829244 -231.73705167 68.20886351 C-228.84217729 65.3204868 -225.95051392 62.42908937 -223.06763268 59.52873802 C-196.08057385 32.38836484 -196.08057385 32.38836484 -180.26953125 25.421875 C-179.63080078 25.11894531 -178.99207031 24.81601562 -178.33398438 24.50390625 C-168.07253763 19.80782059 -157.06635687 17.23368952 -146.04370117 15.04785156 C-144.83855362 14.80342819 -143.63340607 14.55900482 -142.39173889 14.30717468 C-139.12809414 13.64715681 -135.86336909 12.99320445 -132.59774947 12.34307194 C-130.54711088 11.93443335 -128.4968537 11.52393262 -126.44671059 11.11281586 C-119.26494375 9.67278641 -112.0817628 8.24006168 -104.8972168 6.81396484 C-98.24675756 5.4936707 -91.59975644 4.15689213 -84.95413893 2.81246018 C-79.20722921 1.65064659 -73.45799387 0.50086245 -67.70688516 -0.63998246 C-64.29011168 -1.3179852 -60.87442274 -2.00054831 -57.46105003 -2.69548798 C-15.65358667 -11.19300711 -15.65358667 -11.19300711 0 0 Z M-43.04785156 11.9206543 C-44.20408524 12.14670853 -45.36031891 12.37276276 -46.55158997 12.60566711 C-50.34011041 13.34951155 -54.1251069 14.10979979 -57.91015625 14.87109375 C-60.56716182 15.39904084 -63.2247422 15.92407155 -65.88226318 16.44941711 C-71.44152359 17.55029017 -76.99888347 18.66037244 -82.55517578 19.77612305 C-88.93520151 21.05717563 -95.31794176 22.32390083 -101.70237088 23.5828101 C-107.89230425 24.80369914 -114.08019327 26.03466689 -120.2672348 27.27012062 C-122.87702898 27.79109661 -125.4874954 28.3082246 -128.09842682 28.82352257 C-163.54271728 35.8339118 -185.97445308 46.78661914 -211.73262024 72.55029297 C-212.68618981 73.50055267 -213.63996803 74.45060302 -214.59393376 75.40046501 C-217.18626729 77.98290028 -219.77555513 80.56836965 -222.36427987 83.15442181 C-225.16754007 85.95374301 -227.9736136 88.75024202 -230.7792511 91.54718018 C-237.53418283 98.28246221 -244.28437 105.02248942 -251.0339413 111.76314259 C-254.21831864 114.94312367 -257.40317884 118.12262108 -260.58797264 121.30218506 C-271.18038883 131.87761093 -281.77155825 142.45428309 -292.35911274 153.03457642 C-295.09885535 155.77240944 -297.83860336 158.51023705 -300.57836914 161.24804688 C-301.25924397 161.92843796 -301.9401188 162.60882905 -302.6416262 163.30983806 C-313.68852307 174.34842209 -324.74392049 185.37845164 -335.8028662 196.40496325 C-347.17297299 207.74199583 -358.5355328 219.08654794 -369.89071244 230.43853188 C-376.26015392 236.80581011 -382.63283597 243.16976878 -389.01397133 249.52532959 C-394.44307997 254.93272752 -399.86530627 260.34690954 -405.27870832 265.77003336 C-408.03886011 268.53472683 -410.80211959 271.29610988 -413.57424164 274.04880524 C-416.11479898 276.5717118 -418.64583952 279.10378477 -421.16981556 281.64327645 C-422.51101486 282.98796733 -423.86202483 284.3228513 -425.21342927 285.65728569 C-432.19224683 292.71049676 -437.66981907 299.57750737 -437.83203125 309.796875 C-436.0425241 322.32342502 -426.55641346 330.5255418 -417.95361328 339.01147461 C-416.06349704 340.87767469 -414.18739424 342.75719135 -412.3125 344.63867188 C-411.11668028 345.82892411 -409.9200938 347.01840662 -408.72265625 348.20703125 C-407.88048553 349.05056908 -407.88048553 349.05056908 -407.02130127 349.91114807 C-404.40787974 352.85476902 -404.40787974 352.85476902 -400.83203125 353.796875 C-400.83203125 354.456875 -400.83203125 355.116875 -400.83203125 355.796875 C-399.38994919 357.00419951 -397.94362205 358.20694518 -396.47265625 359.37890625 C-394.83203125 360.796875 -394.83203125 360.796875 -392.39453125 363.734375 C-389.94706519 366.65939542 -387.44325041 368.93576427 -384.52734375 371.359375 C-382.15464645 373.37124737 -380.00193857 375.56986485 -377.83203125 377.796875 C-376.70273697 378.92613907 -376.70273697 378.92613907 -375.55062866 380.07821655 C-372.6762557 382.95265405 -369.81663638 385.84139738 -366.95947266 388.73291016 C-361.21706928 394.54062221 -355.46453185 400.33818583 -349.70612526 406.13002968 C-346.22972672 409.62734047 -342.75718353 413.12831237 -339.29296875 416.63769531 C-335.93085179 420.04334878 -332.55898791 423.43906799 -329.18021774 426.82819748 C-327.89853624 428.11724521 -326.6203687 429.40979708 -325.34587479 430.70595169 C-323.5609727 432.51999891 -321.76382833 434.32102952 -319.96337891 436.11962891 C-319.44470749 436.65268143 -318.92603607 437.18573395 -318.39164734 437.73493958 C-313.30402845 442.76647731 -308.12664462 445.22466747 -300.89453125 445.234375 C-286.22500785 444.76057673 -276.70037267 431.81648804 -266.98959351 422.08815002 C-266.04229238 421.14272255 -265.09477683 420.19750988 -264.14706862 419.25249046 C-261.57191758 416.68339492 -258.99983429 414.11124803 -256.42830276 411.53853023 C-253.64343787 408.75345974 -250.85570511 405.97126217 -248.06837463 403.18865967 C-242.61983194 397.74838847 -237.17403685 392.30537509 -231.72934888 386.8612463 C-227.30197315 382.43434716 -222.87380565 378.00824156 -218.44508743 373.58268547 C-205.87011379 361.01650696 -193.29722696 348.44824589 -180.72702579 335.87729336 C-180.05075962 335.20098723 -179.37449346 334.52468111 -178.67773438 333.82788086 C-178.00063709 333.15074269 -177.32353981 332.47360453 -176.62592442 331.77594703 C-165.64617969 320.7957956 -154.66145107 309.82064518 -143.6744601 298.84774495 C-132.3747129 287.56237467 -121.07871202 276.27326641 -109.78658259 264.98027366 C-103.45410855 258.64746823 -97.12011667 252.31619863 -90.78208542 245.98895454 C-85.38824972 240.60424091 -79.99791614 235.21605131 -74.61202811 229.82338781 C-71.86721702 227.07532084 -69.12085287 224.32885706 -66.37006187 221.58677483 C-63.84665059 219.07127016 -61.32799497 216.55109937 -58.81287582 214.02730464 C-57.48247837 212.69466474 -56.14720677 211.36689612 -54.81170404 210.0393725 C-47.53289825 202.71911106 -40.78497226 195.03442645 -35.64453125 186.046875 C-34.72607422 184.47679687 -34.72607422 184.47679687 -33.7890625 182.875 C-27.45675813 170.3445988 -24.82922741 156.78478601 -22.07250977 143.13525391 C-21.3895111 139.7721557 -20.67897458 136.41561928 -19.96679688 133.05859375 C-19.52567552 130.90919586 -19.08616347 128.75946693 -18.6484375 126.609375 C-18.43506241 125.61244629 -18.22168732 124.61551758 -18.00184631 123.58837891 C-16.18275168 114.35194271 -18.77583249 109.40870706 -23.8203125 101.69921875 C-26.9177779 97.23044828 -30.09523177 92.75702341 -33.83203125 88.796875 C-34.49203125 88.796875 -35.15203125 88.796875 -35.83203125 88.796875 C-36.36828125 89.51875 -36.90453125 90.240625 -37.45703125 90.984375 C-43.28160311 97.88189431 -51.0390486 100.56563951 -59.83203125 101.796875 C-67.62837462 102.04081566 -74.03288581 100.5696543 -80.83203125 96.796875 C-81.88390625 96.24 -82.93578125 95.683125 -84.01953125 95.109375 C-87.9451645 91.88163211 -90.33714293 88.19052789 -92.83203125 83.796875 C-93.34830078 82.90548828 -93.34830078 82.90548828 -93.875 81.99609375 C-97.59529683 74.11884554 -97.17492222 62.43318535 -94.33203125 54.359375 C-89.9268854 45.21022593 -83.25521427 39.38665901 -73.83203125 35.796875 C-65.40826249 33.09359517 -55.42133679 34.02954867 -47.3671875 37.41015625 C-39.91672194 41.48552647 -33.54940059 47.6209304 -30.83203125 55.796875 C-30.56007105 58.27171285 -30.33433935 60.7518848 -30.14453125 63.234375 C-29.37764214 70.67990037 -26.94765182 73.75499025 -21.38671875 78.56640625 C-17.93859096 81.57692761 -15.4121361 85.04208826 -12.83203125 88.796875 C-10.90356937 85.90418219 -10.36791088 84.38210294 -9.68701172 81.06933594 C-9.48695526 80.11113953 -9.2868988 79.15294312 -9.08078003 78.16571045 C-8.7681572 76.61415253 -8.7681572 76.61415253 -8.44921875 75.03125 C-8.2300882 73.96449036 -8.01095764 72.89773071 -7.78518677 71.79864502 C-7.32306881 69.53977298 -6.86432544 67.28020835 -6.40869141 65.02001953 C-5.71218956 61.5724081 -5.0014017 58.12796332 -4.2890625 54.68359375 C-3.84158057 52.48715569 -3.39493865 50.2905463 -2.94921875 48.09375 C-2.73675507 47.06747498 -2.52429138 46.04119995 -2.3053894 44.98382568 C-0.25523392 34.71141607 -0.11289171 26.65733731 -5.89453125 17.546875 C-10.0318211 13.13869117 -15.5295236 10.13866807 -21.55857468 9.51469135 C-28.93622994 9.55775626 -35.82694513 10.44977641 -43.04785156 11.9206543 Z M-72.64453125 58.109375 C-76.07197191 62.32023067 -76.83203125 65.3233525 -76.83203125 70.734375 C-76.0734741 75.49592051 -73.41444957 78.69267177 -69.83203125 81.796875 C-65.40388477 84.53593468 -60.89105357 84.4661 -55.83203125 83.796875 C-52.72134616 82.47530137 -50.38058617 80.89398484 -48.83203125 77.796875 C-53.75966855 76.2971593 -58.6051069 75.25992739 -63.6953125 74.45703125 C-65.83203125 73.796875 -65.83203125 73.796875 -67.83203125 70.796875 C-68.49236645 64.74380237 -68.49236645 64.74380237 -66.29296875 61.58984375 C-62.94924592 59.15370283 -60.04555469 59.35207045 -56.08203125 59.546875 C-55.38464844 59.56492187 -54.68726563 59.58296875 -53.96875 59.6015625 C-52.25591586 59.64848946 -50.54379301 59.72022895 -48.83203125 59.796875 C-53.18494229 55.27578524 -53.18494229 55.27578524 -58.83203125 52.796875 C-64.51208464 52.796875 -68.26830961 54.51114831 -72.64453125 58.109375 Z M-5.83203125 142.796875 C-5.98760498 143.5717627 -6.14317871 144.34665039 -6.3034668 145.14501953 C-13.80538604 182.18385309 -26.07187811 204.75281422 -53.1431179 231.02780342 C-56.24411014 234.0392152 -59.32722969 237.06851314 -62.40705872 240.10154724 C-63.46856465 241.14651359 -64.53008725 242.191463 -65.59162617 243.23639584 C-66.38778888 244.02012768 -66.38778888 244.02012768 -67.20003569 244.81969249 C-74.35345115 251.85859309 -81.52126066 258.882259 -88.72290039 265.87182617 C-93.61043012 270.61570979 -98.4743046 275.3825197 -103.31275827 280.17646259 C-105.86496929 282.70324519 -108.42766951 285.21678317 -111.0201931 287.7022419 C-113.90486792 290.46797461 -116.73667303 293.28257318 -119.56713867 296.10375977 C-120.42464218 296.90981155 -121.28214569 297.71586334 -122.16563416 298.54634094 C-126.54535605 302.99925668 -126.54535605 302.99925668 -128.14602089 308.87069511 C-127.91663704 311.93217337 -127.46946172 314.79592401 -126.83203125 317.796875 C-126.51627627 319.66785903 -126.20108079 321.53893767 -125.88671875 323.41015625 C-125.50469184 325.3121802 -125.11108154 327.21190747 -124.70703125 329.109375 C-124.48821289 330.13844971 -124.26939453 331.16752441 -124.04394531 332.2277832 C-117.22714789 363.22719312 -105.59742148 401.05851866 -78.83203125 420.796875 C-70.00772658 426.01596965 -62.17358554 428.31520961 -52.01953125 425.796875 C-36.48852953 420.67545572 -26.4111078 406.47682607 -18.83203125 392.796875 C-18.50348145 392.20696777 -18.17493164 391.61706055 -17.83642578 391.00927734 C20.77185731 320.55716876 18.6369844 223.76267171 -2.83203125 148.796875 C-3.48782868 146.79328468 -4.15169624 144.79226687 -4.83203125 142.796875 C-5.16203125 142.796875 -5.49203125 142.796875 -5.83203125 142.796875 Z " fill="#ffffff" transform="translate(468.83203125,35.203125)"/>
<path d="M0 0 C6.07158572 5.34116939 9.48695289 11.00420377 10.3125 19.04296875 C10.59427078 26.55392116 9.379982 32.30790712 6 39 C5.505 39.99 5.505 39.99 5 41 C5.60499329 41.15398254 6.20998657 41.30796509 6.83331299 41.46661377 C13.13169027 43.0725751 19.4248478 44.69787386 25.71533203 46.33447266 C28.0633331 46.94263704 30.41261835 47.54586577 32.76318359 48.14404297 C36.14250182 49.00493392 39.5167976 49.88349447 42.890625 50.765625 C43.94179504 51.02933899 44.99296509 51.29305298 46.07598877 51.5647583 C47.05670349 51.82472595 48.03741821 52.0846936 49.04785156 52.35253906 C49.90944885 52.57460022 50.77104614 52.79666138 51.65875244 53.02545166 C54.48788447 54.20308275 56.02434599 55.67943833 58 58 C58.9063734 61.6540408 58.42866158 65.01659991 56.9375 68.4375 C54.11600939 70.71289565 51.52951268 71.04500195 48 71 C43.56314607 70.20327064 39.25719404 68.99325133 34.91796875 67.78125 C33.00776993 67.26689382 31.09756918 66.75254468 29.187253 66.23862457 C26.52689619 65.51948293 23.86991301 64.78829467 21.21289062 64.0569458 C16.54272589 62.77273494 11.86927997 61.50069357 7.19294739 60.23913574 C4.70575289 59.56684113 2.22056123 58.88708584 -0.2624054 58.19934082 C-1.38084335 57.89572632 -2.49928131 57.59211182 -3.65161133 57.27929688 C-4.63865555 57.00758667 -5.62569977 56.73587646 -6.64265442 56.45593262 C-9.00797258 55.75026973 -9.00797258 55.75026973 -11 57 C-10.57626602 57.42151337 -10.15253204 57.84302673 -9.71595764 58.27731323 C-5.31715762 62.65403688 -0.92184422 67.03423929 3.47143555 71.41650391 C5.11279047 73.05282151 6.75504063 74.68824163 8.39819336 76.32275391 C10.7560894 78.66855818 13.11077625 81.01754201 15.46484375 83.3671875 C16.20339096 84.10057343 16.94193817 84.83395935 17.7028656 85.58956909 C18.38349564 86.2701236 19.06412567 86.9506781 19.76538086 87.65185547 C20.3671666 88.25142059 20.96895233 88.85098572 21.588974 89.46871948 C23.79916632 91.86727517 24.00318753 93.03442537 24.3125 96.375 C24 100 24 100 22.3125 102.375 C19.70358296 104.20829306 18.18103014 104.8448278 15 105 C9.78867609 103.6354938 6.70818825 100.1451201 3.02246094 96.44238281 C2.34058716 95.76897858 1.65871338 95.09557434 0.95617676 94.40176392 C-1.29229735 92.17666199 -3.52942344 89.94055587 -5.765625 87.703125 C-7.32520626 86.15064432 -8.885086 84.59846342 -10.44525146 83.04656982 C-13.71188007 79.793386 -16.97250989 76.53432449 -20.22949219 73.27148438 C-24.40475017 69.09032568 -28.59797521 64.92771409 -32.7963295 60.76976395 C-36.02199621 57.56993797 -39.23613084 54.35872033 -42.44707489 51.14412689 C-43.98850758 49.60438832 -45.53393153 48.06863472 -47.08338165 46.53696442 C-49.24771051 44.39475493 -51.39558829 42.23727863 -53.54003906 40.07519531 C-54.50469086 39.13043839 -54.50469086 39.13043839 -55.48883057 38.16659546 C-58.97741012 34.61096027 -60.91864622 32.22333258 -61 27 C-58.99168116 20.50947866 -53.47335136 16.0712582 -48.75 11.4375 C-47.91597656 10.60025391 -47.08195313 9.76300781 -46.22265625 8.90039062 C-32.93067433 -4.27682536 -17.09768997 -11.58970931 0 0 Z M-29.6484375 17.35546875 C-30.89841884 18.62518663 -32.14049068 19.90273404 -33.375 21.1875 C-34.33599609 22.16879883 -34.33599609 22.16879883 -35.31640625 23.16992188 C-36.88468292 24.77330922 -38.44548219 26.38328872 -40 28 C-36.5191826 32.1413833 -32.98304674 36.13790851 -29.125 39.9375 C-27.95324219 41.09572266 -27.95324219 41.09572266 -26.7578125 42.27734375 C-26.17773438 42.84582031 -25.59765625 43.41429687 -25 44 C-20.80362242 42.35793921 -17.97602229 39.27129269 -14.875 36.125 C-14.33746094 35.59519531 -13.79992187 35.06539063 -13.24609375 34.51953125 C-9.33149657 30.5854099 -7.19043755 28.09481309 -6.6875 22.5625 C-7.02787339 18.68224334 -7.5206956 16.97516528 -10 14 C-17.86983328 9.14414542 -23.33962152 11.25407045 -29.6484375 17.35546875 Z " fill="#ffffff" transform="translate(212,256)"/>
<path d="M0 0 C2.84545762 1.76614611 3.01955037 3.07540858 3.875 6.375 C4.0494078 11.43282621 2.15955249 13.71948466 -1.17651367 17.40356445 C-1.99869385 18.215271 -2.82087402 19.02697754 -3.66796875 19.86328125 C-4.56064453 20.74951172 -5.45332031 21.63574219 -6.37304688 22.54882812 C-7.30181641 23.46083984 -8.23058594 24.37285156 -9.1875 25.3125 C-10.1378315 26.2527888 -11.087706 27.19353971 -12.03710938 28.13476562 C-14.35362123 30.42775959 -16.67467801 32.71594652 -19 35 C-17.54254576 38.36335594 -15.68882146 40.54534005 -13.0859375 43.109375 C-12.32539063 43.86347656 -11.56484375 44.61757812 -10.78125 45.39453125 C-9.9871875 46.17183594 -9.193125 46.94914062 -8.375 47.75 C-7.57320312 48.54277344 -6.77140625 49.33554688 -5.9453125 50.15234375 C-3.96797154 52.10614493 -1.98611091 54.05512103 0 56 C3.02496581 54.64937713 5.0805694 53.14970763 7.3828125 50.77734375 C7.99253906 50.15666016 8.60226562 49.53597656 9.23046875 48.89648438 C9.85566406 48.25001953 10.48085938 47.60355469 11.125 46.9375 C12.37536074 45.6527607 13.62786516 44.37010319 14.8828125 43.08984375 C15.70869873 42.23700806 15.70869873 42.23700806 16.55126953 41.36694336 C18.8481008 39.19977816 20.09685183 38.98903564 23.3125 38.625 C27 39 27 39 29.9375 41.0625 C32 44 32 44 32.75 47.3125 C31.66307375 52.65655406 28.80240487 55.23769079 25 59 C24.11183594 59.90105469 23.22367187 60.80210937 22.30859375 61.73046875 C19.8887799 64.17093535 17.45223292 66.59217371 15 69 C16.45745424 72.36335594 18.31117854 74.54534005 20.9140625 77.109375 C21.67460937 77.86347656 22.43515625 78.61757813 23.21875 79.39453125 C24.0128125 80.17183594 24.806875 80.94914062 25.625 81.75 C26.42679687 82.54277344 27.22859375 83.33554687 28.0546875 84.15234375 C30.03202846 86.10614493 32.01388909 88.05512103 34 90 C37.64481256 88.47938524 39.82891092 86.32497849 42.51953125 83.46484375 C43.37740234 82.57345703 44.23527344 81.68207031 45.11914062 80.76367188 C46.91110344 78.88334541 48.69502343 76.99532032 50.47070312 75.09960938 C51.33244141 74.20951172 52.19417969 73.31941406 53.08203125 72.40234375 C53.85780518 71.58241943 54.6335791 70.76249512 55.43286133 69.91772461 C58.6595464 67.50730034 61.01236177 67.17832665 65 67 C67.91330459 68.23006194 69.47142711 69.30324482 71.375 71.8125 C72.30975636 75.08414725 72.06930693 76.72917881 71 80 C66.02926631 86.71486824 59.66526822 92.48928284 53.75512695 98.37524414 C52.16954204 99.95539644 50.58946558 101.54091976 49.00976562 103.12695312 C48.00032108 104.13573806 46.99056701 105.14421338 45.98046875 106.15234375 C45.07192139 107.05976318 44.16337402 107.96718262 43.22729492 108.90209961 C40.0147042 111.92805511 37.63597923 112.55568575 33.17127991 112.44572449 C24.35415952 110.63572917 14.72186096 96.86531784 8.47265625 90.60546875 C7.07415612 89.20764311 5.67550765 87.80996587 4.27671814 86.41242981 C1.36115622 83.49833512 -1.55260674 80.58245686 -4.46508789 77.6652832 C-8.2032137 73.92142878 -11.94585408 70.18212457 -15.68982601 66.44411755 C-18.57143063 63.56611782 -21.45066005 60.68575141 -24.32916451 57.80465126 C-25.70917882 56.42396912 -27.08993841 55.04403149 -28.4714489 53.66484642 C-30.39346585 51.74535821 -32.31226672 49.82271279 -34.23022461 47.89916992 C-34.8031575 47.32826126 -35.37609039 46.7573526 -35.96638489 46.16914368 C-39.35392865 42.76322679 -40.83577928 41.19060025 -41.5 36.375 C-41.42816859 32.74953147 -40.63872753 31.11888743 -38.1953125 28.46875 C-37.55948242 27.77700684 -36.92365234 27.08526367 -36.26855469 26.37255859 C-32.18782485 22.10474407 -28.08721009 17.86290166 -23.91992188 13.6796875 C-22.36383845 12.11376789 -20.81874506 10.53748311 -19.2734375 8.9609375 C-18.27409552 7.95507498 -17.27411806 6.94984334 -16.2734375 5.9453125 C-15.38060059 5.04312988 -14.48776367 4.14094727 -13.56787109 3.21142578 C-9.06990634 -0.66217802 -5.75243467 -1.62568806 0 0 Z " fill="#ffffff" transform="translate(255,186)"/>
<path d="M0 0 C1.96476177 2.37408714 1.99265005 3.67660211 2.0625 6.75 C-1.2966006 17.02489594 -13.44235962 25.53710342 -21 33 C-19.54254576 36.36335594 -17.68882146 38.54534005 -15.0859375 41.109375 C-14.32539063 41.86347656 -13.56484375 42.61757812 -12.78125 43.39453125 C-11.9871875 44.17183594 -11.193125 44.94914062 -10.375 45.75 C-9.57320313 46.54277344 -8.77140625 47.33554688 -7.9453125 48.15234375 C-5.96797154 50.10614493 -3.98611091 52.05512103 -2 54 C1.02496581 52.64937713 3.0805694 51.14970763 5.3828125 48.77734375 C5.99253906 48.15666016 6.60226562 47.53597656 7.23046875 46.89648438 C7.85566406 46.25001953 8.48085938 45.60355469 9.125 44.9375 C10.37536074 43.6527607 11.62786516 42.37010319 12.8828125 41.08984375 C13.70869873 40.23700806 13.70869873 40.23700806 14.55126953 39.36694336 C16.8481008 37.19977816 18.09685183 36.98903564 21.3125 36.625 C25 37 25 37 27.9375 39.0625 C30 42 30 42 30.75 45.3125 C29.66307375 50.65655406 26.80240487 53.23769079 23 57 C22.11183594 57.90105469 21.22367187 58.80210937 20.30859375 59.73046875 C17.8887799 62.17093535 15.45223292 64.59217371 13 67 C14.45745424 70.36335594 16.31117854 72.54534005 18.9140625 75.109375 C19.67460937 75.86347656 20.43515625 76.61757812 21.21875 77.39453125 C22.0128125 78.17183594 22.806875 78.94914062 23.625 79.75 C24.42679687 80.54277344 25.22859375 81.33554688 26.0546875 82.15234375 C28.03202846 84.10614493 30.01388909 86.05512103 32 88 C35.53323172 86.4994769 37.74536516 84.462001 40.40625 81.71875 C41.23253906 80.87699219 42.05882812 80.03523438 42.91015625 79.16796875 C44.19212891 77.84732422 44.19212891 77.84732422 45.5 76.5 C47.19314885 74.75577577 48.89088708 73.01599179 50.59375 71.28125 C51.71813477 70.12206055 51.71813477 70.12206055 52.86523438 68.93945312 C56.22034446 65.89130645 57.98818091 64.96449758 62.5625 65.125 C66 66 66 66 67.875 67.75 C69.169599 70.339198 69.86152527 72.09203066 70 75 C67.87468238 80.3291617 64.67081802 83.74129995 60.65234375 87.67578125 C60.03984268 88.28640915 59.42734161 88.89703705 58.79627991 89.52616882 C57.50791126 90.80784566 56.21596497 92.08593515 54.9206543 93.3605957 C52.93335041 95.3165842 50.95706599 97.28319249 48.98242188 99.25195312 C47.72718617 100.49802441 46.47134773 101.74348887 45.21484375 102.98828125 C44.62211166 103.57676346 44.02937958 104.16524567 43.41868591 104.77156067 C39.92301569 108.20625042 38.27655805 109.82392303 33.375 110.5 C23.50456271 110.25996111 13.18824192 95.41295108 6.5078125 88.78125 C5.82259396 88.10135513 5.13737541 87.42146027 4.43139267 86.72096252 C0.81435089 83.13048671 -2.79911886 79.5364553 -6.41015625 75.93994141 C-9.39056437 72.97292948 -12.37809591 70.0133794 -15.37207031 67.06005859 C-19.00394585 63.47747211 -22.62341891 59.8827923 -26.23428726 56.27903748 C-27.60715275 54.91287768 -28.98426404 53.55097042 -30.36571884 52.1934967 C-32.29466382 50.29618002 -34.2072261 48.38368189 -36.11669922 46.46679688 C-36.68603683 45.91386459 -37.25537445 45.36093231 -37.84196472 44.79124451 C-41.42179558 41.1542874 -43.1012919 38.17350167 -44 33 C-42.27006703 27.70280234 -38.65901718 24.20579335 -34.79296875 20.359375 C-34.18995438 19.75111877 -33.58694 19.14286255 -32.96565247 18.51617432 C-31.6943361 17.23846179 -30.41916606 15.96457332 -29.14038086 14.69433594 C-27.19171744 12.75419899 -25.262469 10.79610911 -23.33398438 8.8359375 C-22.09227751 7.59261877 -20.84947486 6.35039322 -19.60546875 5.109375 C-19.03338181 4.52605408 -18.46129486 3.94273315 -17.87187195 3.34173584 C-12.03901239 -2.39171726 -7.59223573 -4.380136 0 0 Z " fill="#ffffff" transform="translate(308,137)"/>
<path d="M0 0 C2.75171298 1.90503206 3.71801879 3.2856476 4.9375 6.375 C5.04735198 10.98878333 2.68681665 14.21006106 -0.26831055 17.60888672 C-1.13238525 18.45725098 -1.99645996 19.30561523 -2.88671875 20.1796875 C-3.82451172 21.1078125 -4.76230469 22.0359375 -5.72851562 22.9921875 C-6.71468033 23.95329271 -7.70101052 24.91422815 -8.6875 25.875 C-9.68623895 26.85867282 -10.68429284 27.8430417 -11.68164062 28.828125 C-14.11444964 31.22567591 -16.55399215 33.61592846 -19 36 C-15.66883385 39.95374187 -12.31571444 43.81041857 -8.625 47.4375 C-7.93664062 48.11683594 -7.24828125 48.79617188 -6.5390625 49.49609375 C-6.03117187 49.99238281 -5.52328125 50.48867188 -5 51 C-1.86842675 49.62364894 0.11594656 48.06810501 2.42578125 45.55859375 C3.05806641 44.89279297 3.69035156 44.22699219 4.34179688 43.54101562 C5.65209263 42.1424145 6.95426476 40.73615668 8.24804688 39.32226562 C11.4357537 35.99245231 13.26757067 34.20173799 17.80078125 32.953125 C21.487852 33.00714801 23.13399323 33.72405345 26 36 C27.69756113 39.39512226 27.93514431 42.38777591 27 46 C24.40178931 49.59429146 21.25278476 52.50118642 18 55.5 C17.14148438 56.32242188 16.28296875 57.14484375 15.3984375 57.9921875 C13.28253864 60.01404641 11.15032017 62.01489355 9 64 C13.04434653 68.89645946 17.32777317 73.37495491 21.9296875 77.74609375 C23.23281091 79.00738986 24.5348638 80.26979277 25.8359375 81.53320312 C27.86088757 83.49632078 29.89081386 85.45246295 31.93945312 87.39086914 C33.93417411 89.28247238 35.90211784 91.19876624 37.8671875 93.12109375 C38.79046341 93.97772865 38.79046341 93.97772865 39.73239136 94.85166931 C42.78358001 97.88202541 44.37840311 99.87338461 44.47705078 104.27368164 C44 108 44 108 42.5 110.5 C39.66658765 112.20004741 37.41336653 112.76101167 34.09962463 112.55162048 C25.09743045 110.18653359 15.76507434 96.99188984 9.25390625 90.52734375 C8.55640699 89.83516817 7.85890774 89.14299259 7.14027214 88.429842 C3.45954483 84.77568014 -0.21761163 81.11796359 -3.89233398 77.45776367 C-6.92808403 74.43541974 -9.9709649 71.4205381 -13.02026367 68.41186523 C-16.71694138 64.76441391 -20.40127829 61.10492498 -24.0769825 57.43634224 C-25.47579861 56.04424113 -26.87886793 54.65640009 -28.28625298 53.27296257 C-30.24888657 51.34187642 -32.19523313 49.39568725 -34.13842773 47.44506836 C-35.01185318 46.59625092 -35.01185318 46.59625092 -35.90292358 45.73028564 C-39.28363572 42.29634358 -40.87994611 39.86848419 -41 35 C-39.11703164 29.64880092 -35.61733393 26.20633387 -31.65234375 22.32421875 C-31.03984268 21.71359085 -30.42734161 21.10296295 -29.79627991 20.47383118 C-28.50791126 19.19215434 -27.21596497 17.91406485 -25.9206543 16.6394043 C-23.93335041 14.6834158 -21.95706599 12.71680751 -19.98242188 10.74804688 C-18.72718617 9.50197559 -17.47134773 8.25651113 -16.21484375 7.01171875 C-15.62211166 6.42323654 -15.02937958 5.83475433 -14.41868591 5.22843933 C-9.7174876 0.60925141 -6.69536394 -0.95458654 0 0 Z " fill="#ffffff" transform="translate(141,299)"/>
<path d="M0 0 C3.57632467 2.51103647 4.78325846 4.04272488 5.75 8.3125 C4.48408975 14.53655873 0.27174328 18.12581179 -4.5 22.0625 C-8.02345915 23.38379718 -10.39572152 22.93444257 -14 22 C-16.85695513 20.28582692 -17.01592889 18.94371792 -17.9375 15.6875 C-18.02797875 10.34925398 -15.94650993 8.10030824 -12.41796875 4.29296875 C-8.4589373 0.47692715 -5.68234742 -1.15751521 0 0 Z " fill="#ffffff" transform="translate(367,140)"/>
<path d="M0 0 C2.80670318 1.74209163 3.0232223 3.08205212 3.9375 6.3125 C4.01588364 10.93713497 2.91499475 12.47132214 0 16 C-0.7425 16.928125 -1.485 17.85625 -2.25 18.8125 C-6.02509146 21.81541366 -8.19485448 21.92372785 -13 22 C-15.73351043 21.20872067 -16.61084361 20.54481894 -18.25 18.25 C-19.30656709 15.08029872 -19.57948447 13.34813248 -19 10 C-14.48014574 3.13555275 -8.66038031 -2.69434054 0 0 Z " fill="#ffffff" transform="translate(125,384)"/>
</svg>