<svg xmlns="http://www.w3.org/2000/svg" width="48" height="48" viewBox="0 0 48 48" fill="none">
<path d="M45.0161 24.5396C44.9497 24.3647 44.9169 24.1824 44.9169 24C44.9169 23.8164 44.9497 23.634 45.0161 23.4604L46.7689 18.8584C46.9202 18.4614 46.9934 18.0471 46.9934 17.6403C46.9941 16.5114 46.4327 15.4223 45.4435 14.776L41.3196 12.0844C41.0088 11.8809 40.7825 11.5696 40.6856 11.2099L39.3987 6.45657C38.9924 4.95938 37.6355 3.92982 36.0972 3.9285C36.0396 3.9285 35.9819 3.93104 35.9236 3.93347L36.0104 3.9285L31.0195 4.1791L30.9333 4.18032C30.5866 4.18032 30.2511 4.06247 29.9806 3.84544L26.1459 0.756661C25.5214 0.253036 24.7584 -0.00130745 24.0007 5.05374e-06C23.242 -0.00130745 22.4793 0.253036 21.8534 0.756661L21.8541 0.757974L18.0192 3.84535C17.7494 4.06247 17.4127 4.18022 17.0665 4.18022L17.0107 4.17901L12.0743 3.93338H12.0837C12.0161 3.92963 11.9559 3.92963 11.9026 3.92963C10.3645 3.92963 9.00806 4.95919 8.60184 6.45638L7.31484 11.2097C7.21809 11.5694 6.99178 11.8808 6.681 12.0842L2.55712 14.7759C1.56787 15.4223 1.00594 16.5126 1.00659 17.6413C1.00659 18.0482 1.07972 18.4613 1.23047 18.8582L2.98444 23.4602C3.05025 23.6338 3.08372 23.8162 3.08372 23.9998C3.08372 24.1822 3.05081 24.3645 2.98444 24.5381L1.23112 29.1414C1.07981 29.5371 1.00659 29.9501 1.00659 30.357C1.00594 31.4859 1.56722 32.5763 2.55712 33.2237L6.681 35.9156C6.99169 36.1191 7.21809 36.4292 7.31484 36.7889L8.60184 41.5422C9.00806 43.0394 10.3651 44.069 11.9026 44.069C11.9559 44.069 12.0124 44.069 12.0732 44.0652L16.9928 43.8196H17.0021L17.0692 43.8172C17.4134 43.8184 17.7489 43.9362 18.0193 44.1534L21.8542 47.2433C22.4794 47.7469 23.2416 47.9999 24.0007 47.9999C24.7586 47.9999 25.5215 47.7469 26.1467 47.2433L29.9815 44.1534C30.2519 43.935 30.5869 43.8172 30.9316 43.8172L31.0055 43.8196L35.902 44.064L35.9349 44.0652C35.9858 44.0677 36.0397 44.069 36.0974 44.069C37.6349 44.069 38.9926 43.0406 39.3989 41.5422L40.6858 36.7889C40.7826 36.4292 41.0084 36.1191 41.3191 35.9156L45.4436 33.2239C46.4329 32.5764 46.9942 31.4873 46.9935 30.3585C46.9935 29.9516 46.9203 29.5373 46.769 29.1404L45.0161 24.5396ZM44.4008 31.6287L40.2776 34.3205C39.5749 34.7794 39.0657 35.4803 38.8462 36.2915L37.5592 41.0436C37.3805 41.7084 36.777 42.1637 36.0972 42.1637L36.0142 42.1624L31.1895 41.9205L31.1058 41.9168C31.05 41.9143 30.9922 41.9118 30.9314 41.9118C30.1524 41.9118 29.3946 42.1785 28.7855 42.6697L24.9507 45.7597C24.6722 45.9829 24.3385 46.0945 24.0006 46.0945C23.6619 46.0945 23.3282 45.9829 23.0497 45.7597L19.2149 42.6697C18.6058 42.1785 17.8479 41.9118 17.069 41.9118C17.0181 41.913 16.9598 41.913 16.8972 41.9168L11.9788 42.1624L11.9025 42.1637C11.2234 42.1649 10.6199 41.7072 10.4412 41.0449L9.15431 36.2903C8.93475 35.4803 8.4255 34.7794 7.72219 34.3205L3.59906 31.6287C3.16059 31.3421 2.91253 30.8584 2.91187 30.3572C2.91187 30.1774 2.94412 29.9963 3.01106 29.8201L4.76447 25.2181C4.9139 24.8261 4.989 24.4131 4.989 24C4.989 23.5869 4.9139 23.1739 4.76447 22.7806L3.01106 18.1798C2.94412 18.0024 2.91187 17.8213 2.91187 17.6414C2.91253 17.1403 3.15994 16.6578 3.5984 16.3712L7.72294 13.6794C8.42559 13.2192 8.93484 12.5183 9.1544 11.7083L10.4413 6.95372C10.62 6.29138 11.2241 5.8336 11.9026 5.83491L11.9696 5.83622L11.9907 5.83744L16.8445 6.07932L16.9015 6.08176L17.0665 6.08541C17.8462 6.08541 18.604 5.82 19.2143 5.32997L23.0492 2.23997L22.4519 1.49822L23.0498 2.23997C23.3283 2.01544 23.662 1.9051 24.0007 1.90379C24.3386 1.905 24.6723 2.01544 24.9508 2.23997L28.7862 5.32866C29.3965 5.82113 30.1551 6.08532 30.9335 6.08532C30.9911 6.08532 31.0439 6.0841 31.0916 6.08288L36.0528 5.83482L36.0974 5.8335C36.7766 5.8335 37.3806 6.29129 37.5593 6.95363L38.8463 11.7083C39.0659 12.5183 39.5751 13.2191 40.2778 13.6781L44.4016 16.3711C44.8402 16.6576 45.0882 17.1402 45.0882 17.6401C45.0882 17.8199 45.0566 18.001 44.9884 18.1809L43.2363 22.7817C43.0861 23.1737 43.0117 23.5868 43.0117 23.9999C43.0117 24.413 43.0867 24.826 43.2363 25.218L44.9889 29.8188C45.0566 29.9974 45.0882 30.1785 45.0882 30.3584C45.088 30.8584 44.84 31.3421 44.4008 31.6287Z" fill="#ffffff"/>
<path d="M28.86 15.415C28.6715 15.1259 28.3526 14.9498 28.0091 14.9498H27.3833C26.9901 14.9498 26.6334 15.1793 26.4672 15.5377L19.0735 31.6212C18.9346 31.93 18.957 32.296 19.1418 32.585C19.3291 32.874 19.6503 33.0502 19.9945 33.0502H20.6172C21.0117 33.0502 21.3702 32.8219 21.5339 32.4634L28.9287 16.3799C29.0703 16.0712 29.0461 15.7052 28.86 15.415Z" fill="#ffffff"/>
<path d="M21.2108 22.5971C21.3889 22.0873 21.4428 22.4421 21.4428 20.8357C21.4428 19.2268 21.3889 19.5828 21.2108 19.0693C20.7786 17.7967 19.5524 16.9754 17.9168 16.9754C16.2825 16.9754 15.0589 17.7967 14.6241 19.0693C14.4448 19.5829 14.3933 19.2268 14.3933 20.8357C14.3933 22.442 14.4448 22.0872 14.6241 22.5971C15.0589 23.8747 16.2825 24.6922 17.9168 24.6922C19.5524 24.6922 20.7786 23.8747 21.2108 22.5971ZM18.8112 22.0872C18.6822 22.4718 18.3522 22.674 17.9168 22.674C17.4832 22.674 17.1521 22.4718 17.0237 22.0872C16.9468 21.8826 16.9225 22.3912 16.9225 20.8357C16.9225 19.2765 16.9467 19.785 17.0237 19.5828C17.1521 19.1982 17.4832 18.9937 17.9168 18.9937C18.3522 18.9937 18.6821 19.1983 18.8112 19.5828C18.8887 19.7849 18.9123 19.2764 18.9123 20.8357C18.9123 22.3912 18.8887 21.8826 18.8112 22.0872Z" fill="#ffffff"/>
<path d="M30.0831 23.3091C28.4469 23.3091 27.2226 24.1266 26.7878 25.4005C26.6118 25.914 26.559 25.5555 26.559 27.1644C26.559 28.7732 26.6117 28.4185 26.7878 28.9257C27.2226 30.2047 28.4469 31.0246 30.0831 31.0246C31.7167 31.0246 32.9448 30.2047 33.3777 28.9257C33.5564 28.4185 33.6072 28.7732 33.6072 27.1644C33.6072 25.5555 33.5564 25.914 33.3777 25.4005C32.9448 24.1266 31.7167 23.3091 30.0831 23.3091ZM30.975 28.4185C30.8491 28.8005 30.5179 29.0051 30.0831 29.0051C29.6482 29.0051 29.3166 28.8005 29.1881 28.4185C29.1118 28.215 29.0883 28.7211 29.0883 27.1644C29.0883 25.6051 29.1118 26.1162 29.1881 25.914C29.3166 25.527 29.6483 25.3236 30.0831 25.3236C30.5179 25.3236 30.8491 25.527 30.975 25.914C31.0551 26.1162 31.0798 25.6052 31.0798 27.1644C31.0797 28.7212 31.055 28.215 30.975 28.4185Z" fill="#ffffff"/>
</svg>