<svg xmlns="http://www.w3.org/2000/svg" width="48" height="48" viewBox="0 0 48 48" fill="none" transform="matrix(1, 0, 0, 1, 0, 0)">
<g clip-path="url(#clip0_17_79)">
<path d="M4.3093 36.0103C4.3093 33.5828 4.3093 5.16076 4.3093 2.73118C6.71283 2.73118 32.3539 2.73118 34.7575 2.73118C34.7575 3.59022 34.7575 7.70318 34.7575 12.7599C35.3454 12.6513 35.9484 12.5776 36.5666 12.5776C36.8833 12.5776 37.1827 12.6427 37.4951 12.671V0H1.57379V38.7415H24.1648V36.0103C15.9432 36.0103 5.78008 36.0103 4.3093 36.0103Z" fill="#ffffff"/>
<path d="M8.19891 20.8013H26.7529C26.9351 19.7796 27.2952 18.8294 27.7681 17.94H8.19891V20.8013Z" fill="#ffffff"/>
<path d="M30.8637 8.99385H8.19891V11.8552H30.8637V8.99385Z" fill="#ffffff"/>
<path d="M8.19891 29.7497H27.434C27.9481 29.4374 28.497 29.1835 29.0848 29.0274C28.5273 28.3787 28.0696 27.6499 27.6791 26.8884H8.19891V29.7497Z" fill="#ffffff"/>
<path d="M36.5689 30.036C40.6992 30.036 44.0268 26.6975 44.0268 22.5802C44.0268 18.4585 40.6991 15.1222 36.5689 15.1222C32.4559 15.1222 29.126 18.4585 29.126 22.5802C29.126 26.6975 32.4559 30.036 36.5689 30.036Z" fill="#ffffff"/>
<path d="M42.554 31.2466H30.6011C28.4665 31.2466 26.7181 33.2033 26.7181 35.6133V47.6139C26.7181 47.7463 26.7788 47.8634 26.7875 48.0001H46.3567C46.3653 47.8656 46.4261 47.7463 46.4261 47.6139V35.6133C46.4348 33.2097 44.6907 31.2466 42.554 31.2466Z" fill="#ffffff"/>
</g>
<defs fill="#000000">
<clipPath id="clip0_17_79" fill="#000000">
<rect width="48" height="48" fill="#ffffff"/>
</clipPath>
</defs>
</svg>