<svg width="23" height="23" viewBox="0 0 23 23" fill="none" xmlns="http://www.w3.org/2000/svg">
<path d="M21.0331 14.8556L15.8282 12.5233L15.8138 12.5167C15.5436 12.4011 15.2488 12.3547 14.9562 12.3817C14.6635 12.4087 14.3822 12.5083 14.1377 12.6714C14.1089 12.6904 14.0813 12.711 14.0549 12.7332L11.3656 15.0258C9.66196 14.1983 7.90303 12.4526 7.0755 10.771L9.37138 8.04091C9.39348 8.01329 9.41447 7.98566 9.43436 7.95583C9.59393 7.71199 9.69075 7.43249 9.71619 7.14219C9.74164 6.85189 9.69492 6.5598 9.5802 6.29192V6.27866L7.24123 1.06486C7.08957 0.71491 6.82881 0.423394 6.49786 0.233827C6.16692 0.04426 5.78354 -0.0331914 5.40496 0.0130347C3.90785 0.210038 2.53364 0.945276 1.539 2.08143C0.544358 3.21758 -0.00269687 4.67695 9.99743e-06 6.18696C9.99743e-06 14.9595 7.13737 22.0969 15.9099 22.0969C17.4199 22.0996 18.8793 21.5525 20.0154 20.5579C21.1516 19.5632 21.8868 18.189 22.0838 16.6919C22.1301 16.3135 22.0529 15.9302 21.8635 15.5992C21.6741 15.2683 21.3829 15.0075 21.0331 14.8556ZM15.9099 20.3291C12.1604 20.325 8.56571 18.8337 5.91443 16.1824C3.26316 13.5312 1.77187 9.93643 1.76778 6.18696C1.76362 5.10806 2.15232 4.06453 2.86129 3.25126C3.57026 2.43799 4.55102 1.91058 5.6204 1.76754C5.61997 1.77195 5.61997 1.77639 5.6204 1.7808L7.9406 6.97362L5.65686 9.70703C5.63368 9.7337 5.61263 9.76214 5.59389 9.7921C5.42762 10.0472 5.33009 10.341 5.31073 10.6449C5.29137 10.9488 5.35085 11.2526 5.4834 11.5267C6.4844 13.574 8.54716 15.6213 10.6166 16.6212C10.8927 16.7525 11.1982 16.8099 11.5032 16.7879C11.8083 16.7658 12.1023 16.665 12.3567 16.4953C12.3851 16.4761 12.4124 16.4555 12.4385 16.4334L15.1244 14.1419L20.3172 16.4676C20.3172 16.4676 20.326 16.4676 20.3293 16.4676C20.188 17.5385 19.6614 18.5213 18.848 19.232C18.0346 19.9427 16.9901 20.3327 15.9099 20.3291Z" fill="white"/>
</svg>
