<svg id="svg" fill="#ffffff" stroke="#ffffff" width="200" height="200" version="1.1" viewBox="144 144 512 512" xmlns="http://www.w3.org/2000/svg">
    <g id="IconSvg_bgCarrier" stroke-width="0"></g>
    <g id="IconSvg_tracerCarrier" stroke-linecap="round" stroke-linejoin="round" stroke="#CCCCCC" stroke-width="0">
      <path xmlns="http://www.w3.org/2000/svg" d="m400 178.32c-60.617 0-106.12 49.875-106.12 110.52v28.656c-0.039062 2.6953 1.0078 5.2969 2.9023 7.2188 1.8906 1.918 4.4766 3 7.1758 3 2.6953 0 5.2812-1.082 7.1758-3 1.8945-1.9219 2.9375-4.5234 2.8984-7.2188v-28.656c0-50.801 36.273-90.367 85.965-90.367 49.688 0 85.961 39.566 85.961 90.367v28.656c-0.039063 2.6953 1.0078 5.2969 2.9023 7.2188 1.8906 1.918 4.4766 3 7.1758 3 2.6953 0 5.2812-1.082 7.1758-3 1.8906-1.9219 2.9375-4.5234 2.8984-7.2188v-28.656c0-60.645-45.496-110.52-106.11-110.52zm-162.16 172.24c-5.1953 0.48828-9.1562 4.8594-9.1328 10.074v250.96c0 5.5664 4.5117 10.078 10.078 10.078h322.44c5.5625 0 10.074-4.5117 10.074-10.078v-161.85c0.039062-2.6992-1.0039-5.2969-2.8984-7.2188-1.8945-1.918-4.4805-3-7.1758-3-2.6992 0-5.2852 1.082-7.1758 3-1.8945 1.9219-2.9414 4.5195-2.9023 7.2188v151.77h-302.29v-230.81h302.29v40.777c-0.039063 2.6953 1.0078 5.2969 2.9023 7.2188 1.8906 1.918 4.4766 3 7.1758 3 2.6953 0 5.2812-1.082 7.1758-3 1.8945-1.9219 2.9375-4.5234 2.8984-7.2188v-50.855c0-5.5625-4.5117-10.074-10.074-10.074h-322.44c-0.31641-0.015625-0.63281-0.015625-0.94531 0zm162.16 64.551c-30.574 0-55.422 25.199-55.422 55.574 0 18.074 9.1875 33.652 22.672 43.613v32.59c0 5.5664 4.5117 10.074 10.078 10.074h45.344c2.6953 0.039062 5.293-1.0039 7.2148-2.8984 1.9219-1.8945 3.0039-4.4805 3.0039-7.1758 0-2.6992-1.082-5.2812-3.0039-7.1758-1.9219-1.8945-4.5195-2.9375-7.2148-2.9023h-35.27v-27.551c-0.023438-3.5742-1.9414-6.8711-5.0391-8.6602-10.668-6.1523-17.633-16.918-17.633-29.914 0-19.453 15.672-35.422 35.27-35.422 19.594 0 35.266 15.969 35.266 35.422 0 12.996-6.9648 23.762-17.633 29.914-4.8281 2.7852-6.4844 8.9531-3.6992 13.777 2.7812 4.8242 8.9492 6.4844 13.773 3.6992 16.414-9.4648 27.711-27.035 27.711-47.391 0-30.375-24.844-55.574-55.418-55.574z"></path>

      </g>
     <g id="IconSvg_iconCarrier">
      <path xmlns="http://www.w3.org/2000/svg" d="m400 178.32c-60.617 0-106.12 49.875-106.12 110.52v28.656c-0.039062 2.6953 1.0078 5.2969 2.9023 7.2188 1.8906 1.918 4.4766 3 7.1758 3 2.6953 0 5.2812-1.082 7.1758-3 1.8945-1.9219 2.9375-4.5234 2.8984-7.2188v-28.656c0-50.801 36.273-90.367 85.965-90.367 49.688 0 85.961 39.566 85.961 90.367v28.656c-0.039063 2.6953 1.0078 5.2969 2.9023 7.2188 1.8906 1.918 4.4766 3 7.1758 3 2.6953 0 5.2812-1.082 7.1758-3 1.8906-1.9219 2.9375-4.5234 2.8984-7.2188v-28.656c0-60.645-45.496-110.52-106.11-110.52zm-162.16 172.24c-5.1953 0.48828-9.1562 4.8594-9.1328 10.074v250.96c0 5.5664 4.5117 10.078 10.078 10.078h322.44c5.5625 0 10.074-4.5117 10.074-10.078v-161.85c0.039062-2.6992-1.0039-5.2969-2.8984-7.2188-1.8945-1.918-4.4805-3-7.1758-3-2.6992 0-5.2852 1.082-7.1758 3-1.8945 1.9219-2.9414 4.5195-2.9023 7.2188v151.77h-302.29v-230.81h302.29v40.777c-0.039063 2.6953 1.0078 5.2969 2.9023 7.2188 1.8906 1.918 4.4766 3 7.1758 3 2.6953 0 5.2812-1.082 7.1758-3 1.8945-1.9219 2.9375-4.5234 2.8984-7.2188v-50.855c0-5.5625-4.5117-10.074-10.074-10.074h-322.44c-0.31641-0.015625-0.63281-0.015625-0.94531 0zm162.16 64.551c-30.574 0-55.422 25.199-55.422 55.574 0 18.074 9.1875 33.652 22.672 43.613v32.59c0 5.5664 4.5117 10.074 10.078 10.074h45.344c2.6953 0.039062 5.293-1.0039 7.2148-2.8984 1.9219-1.8945 3.0039-4.4805 3.0039-7.1758 0-2.6992-1.082-5.2812-3.0039-7.1758-1.9219-1.8945-4.5195-2.9375-7.2148-2.9023h-35.27v-27.551c-0.023438-3.5742-1.9414-6.8711-5.0391-8.6602-10.668-6.1523-17.633-16.918-17.633-29.914 0-19.453 15.672-35.422 35.27-35.422 19.594 0 35.266 15.969 35.266 35.422 0 12.996-6.9648 23.762-17.633 29.914-4.8281 2.7852-6.4844 8.9531-3.6992 13.777 2.7812 4.8242 8.9492 6.4844 13.773 3.6992 16.414-9.4648 27.711-27.035 27.711-47.391 0-30.375-24.844-55.574-55.418-55.574z"></path>

      </g>
      </svg>