<svg id="svg" fill="#ffffff" stroke="#ffffff" width="200" height="200" version="1.1" viewBox="144 144 512 512" xmlns="http://www.w3.org/2000/svg">
    <g id="IconSvg_bgCarrier" stroke-width="0"></g>
    <g id="IconSvg_tracerCarrier" stroke-linecap="round" stroke-linejoin="round" stroke="#CCCCCC" stroke-width="0">
      <defs xmlns="http://www.w3.org/2000/svg">
  <clipPath id="a">
   <path d="m189 148.09h422v503.81h-422z"></path>
  </clipPath>
 </defs>
<g xmlns="http://www.w3.org/2000/svg" clip-path="url(#a)">
  <path d="m264.91 400.06h135.09l0.050781 171.49c-39.359-14.941-72.961-33.988-96.691-60.355-28.617-31.812-38.453-69.055-38.453-111.13m252.97 130.18c28.707-31.93 45.613-73.164 45.637-127.93l0.070313-145.13-163.59-58.762-163.59 58.762 0.082032 145.13c0.019531 54.766 16.957 96.008 45.684 127.93 31.781 35.328 74.031 55.57 117.87 71.684 43.805-16.062 86.113-36.387 117.83-71.684zm-328.84-306.37 0.089844 178.47c0.03125 63.801 18.992 115.07 54.734 156.07 41.082 47.105 97.949 74.051 156.2 93.496 58.242-19.438 115.15-46.379 156.2-93.496 35.68-40.961 54.602-92.227 54.633-156.07l0.082031-178.47-210.97-75.781zm210.96-45.582 182.53 65.566-0.082031 158.48c-0.019531 56.477-16.547 101.57-47.711 137.35-30.914 35.488-76.43 62.262-134.69 82.23-58.301-19.98-103.86-46.762-134.79-82.23-31.164-35.742-47.699-80.84-47.723-137.35l-0.070312-158.48zm0 221.77v-171.43l135.15 48.535-0.058594 122.89z" fill-rule="evenodd"></path>
 </g>

      </g>
     <g id="IconSvg_iconCarrier">
      <defs xmlns="http://www.w3.org/2000/svg">
  <clipPath id="a">
   <path d="m189 148.09h422v503.81h-422z"></path>
  </clipPath>
 </defs>
<g xmlns="http://www.w3.org/2000/svg" clip-path="url(#a)">
  <path d="m264.91 400.06h135.09l0.050781 171.49c-39.359-14.941-72.961-33.988-96.691-60.355-28.617-31.812-38.453-69.055-38.453-111.13m252.97 130.18c28.707-31.93 45.613-73.164 45.637-127.93l0.070313-145.13-163.59-58.762-163.59 58.762 0.082032 145.13c0.019531 54.766 16.957 96.008 45.684 127.93 31.781 35.328 74.031 55.57 117.87 71.684 43.805-16.062 86.113-36.387 117.83-71.684zm-328.84-306.37 0.089844 178.47c0.03125 63.801 18.992 115.07 54.734 156.07 41.082 47.105 97.949 74.051 156.2 93.496 58.242-19.438 115.15-46.379 156.2-93.496 35.68-40.961 54.602-92.227 54.633-156.07l0.082031-178.47-210.97-75.781zm210.96-45.582 182.53 65.566-0.082031 158.48c-0.019531 56.477-16.547 101.57-47.711 137.35-30.914 35.488-76.43 62.262-134.69 82.23-58.301-19.98-103.86-46.762-134.79-82.23-31.164-35.742-47.699-80.84-47.723-137.35l-0.070312-158.48zm0 221.77v-171.43l135.15 48.535-0.058594 122.89z" fill-rule="evenodd"></path>
 </g>

      </g>
      </svg>