<svg id="svg" fill="#ffffff" stroke="#ffffff" width="200" height="200" version="1.1" viewBox="144 144 512 512" xmlns="http://www.w3.org/2000/svg">
    <g id="IconSvg_bgCarrier" stroke-width="0"></g>
    <g id="IconSvg_tracerCarrier" stroke-linecap="round" stroke-linejoin="round" stroke="#CCCCCC" stroke-width="0">
      <path xmlns="http://www.w3.org/2000/svg" d="m524.75 557.44c-5.625 0.027344-10.836-2.9492-13.668-7.8086-2.8359-4.8594-2.8633-10.859-0.074219-15.746 2.793-4.8828 7.9766-7.9062 13.602-7.9336h0.14062c5.625 0 10.824 3.0039 13.637 7.875 2.8125 4.8711 2.8125 10.871 0 15.742s-8.0117 7.8711-13.637 7.8711zm44.211-60.254v0.003906c-11.98-11.473-27.926-17.879-44.508-17.879-16.586 0-32.531 6.4062-44.512 17.879l22.262 22.262c5.9844-5.7461 13.957-8.9531 22.25-8.9531s16.262 3.207 22.246 8.9531zm33.426-33.332-0.003906 0.003907c-20.641-20.719-48.684-32.367-77.93-32.367-29.25 0-57.293 11.648-77.934 32.367l22.355 22.168c14.73-14.754 34.727-23.047 55.578-23.047 20.848 0 40.844 8.293 55.574 23.047zm-184.36-48.109v188.93h-220.42v-409.35h220.42v62.977h-188.93v157.44zm-141.7 78.719h-31.488v31.488h31.488zm0-47.23h-31.488v31.488h31.488zm47.23 47.23h-31.488v31.488h31.488zm0-47.23h-31.488v31.488h31.488zm47.23 47.23h-31.488v31.488h31.488zm0-47.23h-31.488v31.488h31.488zm157.44-157.44h-267.65v94.465h267.65c16.875 0 32.465-9 40.902-23.617 8.4375-14.613 8.4375-32.617 0-47.23s-24.027-23.617-40.902-23.617z"></path>

      </g>
     <g id="IconSvg_iconCarrier">
      <path xmlns="http://www.w3.org/2000/svg" d="m524.75 557.44c-5.625 0.027344-10.836-2.9492-13.668-7.8086-2.8359-4.8594-2.8633-10.859-0.074219-15.746 2.793-4.8828 7.9766-7.9062 13.602-7.9336h0.14062c5.625 0 10.824 3.0039 13.637 7.875 2.8125 4.8711 2.8125 10.871 0 15.742s-8.0117 7.8711-13.637 7.8711zm44.211-60.254v0.003906c-11.98-11.473-27.926-17.879-44.508-17.879-16.586 0-32.531 6.4062-44.512 17.879l22.262 22.262c5.9844-5.7461 13.957-8.9531 22.25-8.9531s16.262 3.207 22.246 8.9531zm33.426-33.332-0.003906 0.003907c-20.641-20.719-48.684-32.367-77.93-32.367-29.25 0-57.293 11.648-77.934 32.367l22.355 22.168c14.73-14.754 34.727-23.047 55.578-23.047 20.848 0 40.844 8.293 55.574 23.047zm-184.36-48.109v188.93h-220.42v-409.35h220.42v62.977h-188.93v157.44zm-141.7 78.719h-31.488v31.488h31.488zm0-47.23h-31.488v31.488h31.488zm47.23 47.23h-31.488v31.488h31.488zm0-47.23h-31.488v31.488h31.488zm47.23 47.23h-31.488v31.488h31.488zm0-47.23h-31.488v31.488h31.488zm157.44-157.44h-267.65v94.465h267.65c16.875 0 32.465-9 40.902-23.617 8.4375-14.613 8.4375-32.617 0-47.23s-24.027-23.617-40.902-23.617z"></path>

      </g>
      </svg>