<svg width="38" height="38" viewBox="0 0 38 38" fill="none" xmlns="http://www.w3.org/2000/svg">
<path d="M37.7124 18.8562C37.7124 23.8572 35.7257 28.6533 32.1895 32.1895C28.6533 35.7257 23.8572 37.7124 18.8562 37.7124C13.8552 37.7124 9.05907 35.7257 5.52285 32.1895C1.98663 28.6533 0 23.8572 0 18.8562C0 13.8552 1.98663 9.05907 5.52285 5.52285C9.05907 1.98663 13.8552 0 18.8562 0C23.8572 0 28.6533 1.98663 32.1895 5.52285C35.7257 9.05907 37.7124 13.8552 37.7124 18.8562ZM19.5326 13.9206C17.6989 14.6843 14.0314 16.2635 8.53478 18.6582C7.64382 19.0117 7.17478 19.3606 7.13235 19.7C7.06164 20.2728 7.78053 20.499 8.7587 20.8078L9.17118 20.9374C10.1328 21.2509 11.4292 21.6163 12.101 21.6304C12.7138 21.6445 13.395 21.3947 14.1468 20.8762C19.2828 17.409 21.9345 15.6577 22.0994 15.62C22.2173 15.5917 22.3823 15.5587 22.4907 15.6577C22.6015 15.7543 22.5897 15.9405 22.5779 15.99C22.5072 16.2941 19.6859 18.9151 18.2269 20.2728C17.7719 20.697 17.449 20.9964 17.383 21.0647C17.2377 21.2132 17.09 21.3594 16.9399 21.5031C16.0443 22.3658 15.3749 23.0116 16.9753 24.0676C17.746 24.5767 18.3636 24.9939 18.9787 25.4134C19.6481 25.8707 20.3175 26.3256 21.1849 26.896C21.4041 27.0374 21.6163 27.1906 21.8213 27.3367C22.6015 27.893 23.3062 28.3927 24.1713 28.3126C24.6757 28.2654 25.1966 27.794 25.4606 26.3798C26.0852 23.0399 27.3132 15.8062 27.596 12.8246C27.6133 12.5767 27.603 12.3277 27.5654 12.0821C27.5432 11.8839 27.4473 11.7013 27.2967 11.5706C27.0822 11.4226 26.8265 11.3459 26.566 11.3514C25.8589 11.3632 24.7676 11.7427 19.5326 13.9206Z" fill="white"/>
</svg>
